# xmcd
#
# Track frame offsets:
#	150
#	16215
#	34335
#	54165
#	72065
#	88875
#	112355
#	130877
#	150780
#	168342
#	185747
#	202700
#
# Disc length: 2891 seconds
#
# Revision: 0
# Processed by: cddbd v1.5.1PL0 Copyright (c) Steve Scherf et al.
# Submitted via: EasyCDDAExtractor 8.2.3.1
#
DISCID=980b490c
DTITLE=Carla Jonsson - Blinda män and blonda bomber (de bästa bitarna 84-93)
DYEAR=1993
DGENRE=Blues
TTITLE0=Miss Wet
TTITLE1=Ingen lätt match, Bobbo
TTITLE2=Timmer
TTITLE3=Den bästa tiden
TTITLE4=Kungsholmskopplet
TTITLE5=Blond bomb
TTITLE6=Å'hej, å'hå
TTITLE7=Blind man
TTITLE8=Kom hit igen
TTITLE9=Salta skor
TTITLE10=Legoland
TTITLE11=Sekonderna lämnar ringen
EXTD=
EXTT0=
EXTT1=
EXTT2=
EXTT3=
EXTT4=
EXTT5=
EXTT6=
EXTT7=
EXTT8=
EXTT9=
EXTT10=
EXTT11=
PLAYORDER=
